<svg xmlns="http://www.w3.org/2000/svg" version="1.1" xmlns:xlink="http://www.w3.org/1999/xlink" xmlns:svgjs="http://svgjs.dev/svgjs" width="100%" height="100%" viewBox="0 0 1000 600"><rect width="1000" height="600" x="0" y="0" fill="#fe3333"/><g><circle r="166.66666666666666" cx="431.8964640299479" cy="454.1187134431998" fill="#000000" transform="matrix(0.471289393779471,0,0,0.4712893937794709,0,85.97866585793474)"/><path d="M403.41674009725307 490.2139943844874L403.41674009725307 490.2139943844874Q403.41674009725307 479.2898643534338 397.4840532918767 473.4712676789301Q391.5798890192185 467.6526710044263 376.1491988186963 462.14782218982225Q360.68998608545587 456.6429733752182 352.5325417280634 450.56767390625106Q344.3465748379527 444.4923744372839 340.29637519197456 436.7342455379455Q336.2176530132783 428.94759410588904 336.2176530132783 418.9361851218164L336.2176530132783 418.9361851218164Q336.2176530132783 401.56596269645956 347.7978012968495 390.3566073382244Q359.4064721131389 379.1187294472711 378.14577610896714 379.1187294472711L378.14577610896714 379.1187294472711Q390.9809158321372 379.1187294472711 401.020847348928 384.88028105633856Q411.03225633300065 390.641832665406 416.4515375494502 400.88142191122387Q421.8708187658998 411.0924886243236 421.8708187658998 423.3286551604124L421.8708187658998 423.3286551604124L403.41674009725307 423.3286551604124Q403.41674009725307 409.80897465200655 396.8850801047954 402.3931161452861Q390.3819426450559 394.9487351058475 378.14577610896714 394.9487351058475L378.14577610896714 394.9487351058475Q367.02198834888645 394.9487351058475 360.88964381448295 401.1666472384054Q354.7858218127976 407.38455937096336 354.7858218127976 418.62243726191673L354.7858218127976 418.62243726191673Q354.7858218127976 427.8637378625991 361.4030494034098 434.0531274624389Q368.02027699402186 440.27103959499686 381.8537053623274 445.20543775523777L381.8537053623274 445.20543775523777Q403.41674009725307 452.30754840205856 412.6865632306537 462.7467953769035Q421.95638636405425 473.18604235174854 421.95638636405425 490.01433665546034L421.95638636405425 490.01433665546034Q421.95638636405425 507.7553520061532 410.4332831459194 518.4513017754616Q398.9101799277845 529.1187290120517 379.05849715594815 529.1187290120517L379.05849715594815 529.1187290120517Q366.3089250309325 529.1187290120517 355.5274076634697 523.5568351320114Q344.74589029600685 517.9949412519711 338.58502322888523 507.9264872024621Q332.4241561617636 497.82951062023506 332.4241561617636 484.79471316803784L332.4241561617636 484.79471316803784L350.87823483041035 484.79471316803784Q350.87823483041035 498.3429162091618 358.4367060007216 505.8728648467549Q366.023699703751 513.3742909516299 379.05849715594815 513.3742909516299L379.05849715594815 513.3742909516299Q391.1805735611643 513.3742909516299 397.2843955628496 507.1563788190719Q403.41674009725307 500.93846668651395 403.41674009725307 490.2139943844874ZM531.3688218708994 381.115306737542L531.3688218708994 396.97383492883654L492.94897029954376 396.97383492883654L492.94897029954376 527.1221517217809L474.60898176176966 527.1221517217809L474.60898176176966 396.97383492883654L436.3032203212866 396.97383492883654L436.3032203212866 381.115306737542L531.3688218708994 381.115306737542Z " fill="#ffffff" transform="matrix(0.471289393779471,0,0,0.4712893937794709,0,85.97866585793474)"/><path d="M736.2968945161142 468.8608300732428L736.2968945161142 468.8608300732428Q736.2968945161142 460.48985494587043 731.7507774756614 456.0311632331185Q727.2265167671337 451.5724715203666 715.402241195571 447.35419945879255Q703.5561092920832 443.13592739721844 697.3051983614604 438.4805286971392Q691.0324310989124 433.82512999706006 687.9288319655263 427.88020771339086Q684.8033765002149 421.91342909779644 684.8033765002149 414.24185659203215L684.8033765002149 414.24185659203215Q684.8033765002149 400.9313504495522 693.6770472618682 392.3418120029272Q702.5725743554467 383.730417224377 716.9321844303388 383.730417224377L716.9321844303388 383.730417224377Q726.7675337967033 383.730417224377 734.4609626343929 388.1453962732784Q742.1325351401572 392.56037532217977 746.2852382059555 400.4067984833461Q750.4379412717539 408.2313653125872 750.4379412717539 417.6077317085213L750.4379412717539 417.6077317085213L736.2968945161142 417.6077317085213Q736.2968945161142 407.2478303759507 731.291794505231 401.5651840753846Q726.308550826273 395.86068144289317 716.9321844303388 395.86068144289317L716.9321844303388 395.86068144289317Q708.4082149794897 395.86068144289317 703.7091036155599 400.62536180259866Q699.0318485835555 405.3900421623041 699.0318485835555 414.0014369408543L699.0318485835555 414.0014369408543Q699.0318485835555 421.0828884846368 704.1025175902146 425.82571251241694Q709.1731865968736 430.5903928721224 719.773507580622 434.37153829519144L719.773507580622 434.37153829519144Q736.2968945161142 439.81376494457976 743.400202391822 447.8131824292229Q750.5035102675296 455.812599913866 750.5035102675296 468.70783574976605L750.5035102675296 468.70783574976605Q750.5035102675296 482.30247420727426 741.6735521697268 490.49859867924465Q732.843594071924 498.6728668192898 717.631587051947 498.6728668192898L717.631587051947 498.6728668192898Q707.8618066813583 498.6728668192898 699.6001132136121 494.4108820938652Q691.338419745866 490.1488973684406 686.617452050011 482.4336121988258Q681.8964843541561 474.6964706972858 681.8964843541561 464.7081270074445L681.8964843541561 464.7081270074445L696.0375311097956 464.7081270074445Q696.0375311097956 475.08988467194035 701.829459069988 480.8599563002075Q707.6432433621057 486.60817159654937 717.631587051947 486.60817159654937L717.631587051947 486.60817159654937Q726.92052812018 486.60817159654937 731.5977831521845 481.84349123684393Q736.2968945161142 477.0788108771385 736.2968945161142 468.8608300732428ZM809.7560261168942 497.142923584522L809.4500374699406 489.84290872148705Q802.6745745731118 498.6728668192898 789.6919134095107 498.6728668192898L789.6919134095107 498.6728668192898Q778.3921898041542 498.6728668192898 772.6439745078122 490.87015632197404Q766.8739028795451 483.08930215658347 766.8083338837694 468.18328378355994L766.8083338837694 468.18328378355994L766.8083338837694 414.0014369408543L780.3155470135765 414.0014369408543L780.3155470135765 467.17789251499823Q780.3155470135765 486.60817159654937 792.0086845935876 486.60817159654937L792.0086845935876 486.60817159654937Q804.3793684632816 486.60817159654937 809.0566234952861 475.5488676423707L809.0566234952861 475.5488676423707L809.0566234952861 414.0014369408543L822.6512619527944 414.0014369408543L822.6512619527944 497.142923584522L809.7560261168942 497.142923584522ZM903.1918450973567 450.5015112560292L903.1918450973567 459.5718890050097Q903.1918450973567 479.30815673351447 896.0885372216491 488.9905117764022Q888.9633730140162 498.6728668192898 875.980711850415 498.6728668192898L875.980711850415 498.6728668192898Q863.4570336572442 498.6728668192898 856.7034270923407 489.23093142757995L856.7034270923407 489.23093142757995L856.7034270923407 529.1187371911692L843.1743576306081 529.1187371911692L843.1743576306081 414.0014369408543L855.4794725045264 414.0014369408543L856.1570187942093 423.2248090133117Q862.9980506868139 412.4714937060865 875.7621485311624 412.4714937060865L875.7621485311624 412.4714937060865Q889.4442123163717 412.4714937060865 896.1978188812753 422.00085442549744Q902.951425446179 431.53021514490837 903.1918450973567 450.5015112560292L903.1918450973567 450.5015112560292ZM889.6627756356243 460.0964409712158L889.6627756356243 451.81289117154444Q889.6627756356243 437.8248387393816 885.3570782463491 431.18051383410426Q881.051380857074 424.53618892882696 871.522020137663 424.53618892882696L871.522020137663 424.53618892882696Q861.7740960989997 424.53618892882696 856.7034270923407 434.2841129674904L856.7034270923407 434.2841129674904L856.7034270923407 477.5596501794941Q861.6866707712986 487.06715456697975 871.6750144611399 487.06715456697975L871.6750144611399 487.06715456697975Q880.8983865335972 487.06715456697975 885.2477965867229 480.4228296617024Q889.5972066398485 473.7785047564251 889.6627756356243 460.0964409712158L889.6627756356243 460.0964409712158ZM950.4452347197566 498.6728668192898L950.4452347197566 498.6728668192898Q934.927239052826 498.6728668192898 926.6218329212294 489.4276384149072Q918.3164267896327 480.1605536785994 918.163432466156 462.260217831816L918.163432466156 462.260217831816L918.163432466156 452.18444881427376Q918.163432466156 433.6065666778075 926.2721316104254 423.0281020259844Q934.3808307546947 412.4714937060865 948.9152914849889 412.4714937060865L948.9152914849889 412.4714937060865Q963.5153212110588 412.4714937060865 970.7279107463928 421.7604347743196Q977.962356613652 431.071232174478 978.1153509371288 450.74193090720695L978.1153509371288 450.74193090720695L978.1153509371288 459.6374580007855L931.6925019278884 459.6374580007855L931.6925019278884 461.56081521020786Q931.6925019278884 474.9368903484636 936.7194582706969 481.0129506236843Q941.7682709454307 487.06715456697975 951.2102063371406 487.06715456697975L951.2102063371406 487.06715456697975Q957.1988412846603 487.06715456697975 961.7668146570385 484.81595237867856Q966.3566443613419 482.5428938584521 970.3344967717383 477.6252191752699L970.3344967717383 477.6252191752699L977.4159483155206 486.2366139538201Q968.5859902177178 498.6728668192898 950.4452347197566 498.6728668192898ZM948.9152914849889 424.14277495417235L948.9152914849889 424.14277495417235Q940.4568910299154 424.14277495417235 936.3916132918182 429.95655924629006Q932.3044792217955 435.7484872064824 931.7799272555894 447.96617675269965L931.7799272555894 447.96617675269965L964.4988561476953 447.96617675269965L964.4988561476953 446.1302448709783Q963.9743041814892 434.2841129674904 960.2368714222707 429.2134439608314Q956.5212949949773 424.14277495417235 948.9152914849889 424.14277495417235ZM1028.669046680242 413.542453970424L1028.734615676018 426.7655347852029Q1025.8932925257348 426.21912648707155 1022.5929864050214 426.21912648707155L1022.5929864050214 426.21912648707155Q1012.1456597447498 426.21912648707155 1007.9929566789515 437.67184441590484L1007.9929566789515 437.67184441590484L1007.9929566789515 497.142923584522L994.3983182214433 497.142923584522L994.3983182214433 414.0014369408543L1007.6213990362221 414.0014369408543L1007.8399623554747 422.45983739592776Q1013.3040453367882 412.4714937060865 1023.2923890266295 412.4714937060865L1023.2923890266295 412.4714937060865Q1026.5052698196419 412.4714937060865 1028.669046680242 413.542453970424L1028.669046680242 413.542453970424ZM1129.098891876786 468.8608300732428L1129.098891876786 468.8608300732428Q1129.098891876786 460.48985494587043 1124.5527748363331 456.0311632331185Q1120.0285141278055 451.5724715203666 1108.204238556243 447.35419945879255Q1096.358106652755 443.13592739721844 1090.1071957221322 438.4805286971392Q1083.8344284595842 433.82512999706006 1080.730829326198 427.88020771339086Q1077.6053738608866 421.91342909779644 1077.6053738608866 414.24185659203215L1077.6053738608866 414.24185659203215Q1077.6053738608866 400.9313504495522 1086.47904462254 392.3418120029272Q1095.3527153841933 383.730417224377 1109.7341817910108 383.730417224377L1109.7341817910108 383.730417224377Q1119.5695311573752 383.730417224377 1127.2411036631395 388.1453962732784Q1134.934532500829 392.56037532217977 1139.0872355666272 400.4067984833461Q1143.2399386324255 408.2313653125872 1143.2399386324255 417.6077317085213L1143.2399386324255 417.6077317085213L1129.098891876786 417.6077317085213Q1129.098891876786 407.2478303759507 1124.0937918659029 401.5651840753846Q1119.1105481869447 395.86068144289317 1109.7341817910108 395.86068144289317L1109.7341817910108 395.86068144289317Q1101.2102123401614 395.86068144289317 1096.5111009762318 400.62536180259866Q1091.8338459442273 405.3900421623041 1091.8338459442273 414.0014369408543L1091.8338459442273 414.0014369408543Q1091.8338459442273 421.0828884846368 1096.9045149508863 425.82571251241694Q1101.9751839575454 430.5903928721224 1112.5755049412937 434.37153829519144L1112.5755049412937 434.37153829519144Q1129.098891876786 439.81376494457976 1136.2021997524937 447.8131824292229Q1143.3055076282012 455.812599913866 1143.3055076282012 468.70783574976605L1143.3055076282012 468.70783574976605Q1143.3055076282012 482.30247420727426 1134.4755495303987 490.49859867924465Q1125.645591432596 498.6728668192898 1110.4117280806936 498.6728668192898L1110.4117280806936 498.6728668192898Q1100.66380404203 498.6728668192898 1092.402110574284 494.4108820938652Q1084.1404171065378 490.1488973684406 1079.4194494106828 482.4336121988258Q1074.6984817148277 474.6964706972858 1074.6984817148277 464.7081270074445L1074.6984817148277 464.7081270074445L1088.8395284704675 464.7081270074445Q1088.8395284704675 475.08988467194035 1094.63145643066 480.8599563002075Q1100.4233843908523 486.60817159654937 1110.4117280806936 486.60817159654937L1110.4117280806936 486.60817159654937Q1119.7225254808518 486.60817159654937 1124.3997805128563 481.84349123684393Q1129.098891876786 477.0788108771385 1129.098891876786 468.8608300732428ZM1159.9163198913948 414.0014369408543L1172.658561403818 414.0014369408543L1172.9645500507715 421.6948657785439Q1180.5705535607601 412.4714937060865 1193.028662758155 412.4714937060865L1193.028662758155 412.4714937060865Q1206.929289862617 412.4714937060865 1212.4589418397063 424.53618892882696L1212.4589418397063 424.53618892882696Q1220.3053650008728 412.4714937060865 1234.2934174330353 412.4714937060865L1234.2934174330353 412.4714937060865Q1257.2644222864778 412.4714937060865 1257.7889742526838 441.125144860095L1257.7889742526838 441.125144860095L1257.7889742526838 497.142923584522L1244.2817611228766 497.142923584522L1244.2817611228766 442.4365247756103Q1244.2817611228766 433.36614702662973 1241.047023997939 428.95116797772835Q1237.8122868730013 424.53618892882696 1230.1407143672373 424.53618892882696L1230.1407143672373 424.53618892882696Q1223.9990850962406 424.53618892882696 1220.152370677396 429.3008692885324Q1216.3056562585512 434.06554964823783 1215.6936789646438 441.43113350704857L1215.6936789646438 441.43113350704857L1215.6936789646438 497.142923584522L1202.0116151794346 497.142923584522L1202.0116151794346 441.8245474817032Q1201.793051860182 424.53618892882696 1187.9579937514961 424.53618892882696L1187.9579937514961 424.53618892882696Q1177.6636614147012 424.53618892882696 1173.4235330212018 434.83052126562177L1173.4235330212018 434.83052126562177L1173.4235330212018 497.142923584522L1159.9163198913948 497.142923584522L1159.9163198913948 414.0014369408543ZM1335.1822456000098 497.142923584522L1321.04119884437 497.142923584522Q1319.8172442565558 494.45459475771577 1319.2708359584246 488.07254583554146L1319.2708359584246 488.07254583554146Q1312.0363900911652 498.6728668192898 1300.8240918135098 498.6728668192898L1300.8240918135098 498.6728668192898Q1289.5243682081534 498.6728668192898 1283.1860319498296 492.3345305609661Q1276.8476956915056 485.99619430264227 1276.8476956915056 474.47790737803325L1276.8476956915056 474.47790737803325Q1276.8476956915056 461.8012348613857 1285.4590904700558 454.3482256748739Q1294.0704852486062 446.89521648836217 1309.0420726174054 446.7422221648854L1309.0420726174054 446.7422221648854L1319.0304163072467 446.7422221648854L1319.0304163072467 437.8904077351574Q1319.0304163072467 430.43739854864566 1315.7301101865332 427.290086751409Q1312.4298040658198 424.14277495417235 1305.6761975009163 424.14277495417235L1305.6761975009163 424.14277495417235Q1299.5127118979944 424.14277495417235 1295.6878538110748 427.79278238568986Q1291.8411393922302 431.4427898172073 1291.8411393922302 437.05986712199774L1291.8411393922302 437.05986712199774L1278.246500934722 437.05986712199774Q1278.246500934722 430.67781819982343 1282.0057900258657 424.885890239631Q1285.7650791170095 419.07210594751336 1292.1471280391836 415.77179982679996Q1298.529176961358 412.4714937060865 1306.353743790599 412.4714937060865L1306.353743790599 412.4714937060865Q1319.1178416349478 412.4714937060865 1325.762166540225 418.8098299644103Q1332.4064914455023 425.14816622273406 1332.5594857689791 437.27843044125024L1332.5594857689791 437.27843044125024L1332.5594857689791 479.2425877377387Q1332.6469110966802 488.83751745292534 1335.1822456000098 495.9189689967078L1335.1822456000098 495.9189689967078L1335.1822456000098 497.142923584522ZM1302.900443346409 486.3021829495958L1302.900443346409 486.3021829495958Q1307.9055433572923 486.3021829495958 1312.4298040658198 483.5482851270138Q1316.9540647743477 480.7725309725065 1319.0304163072467 476.61982790670817L1319.0304163072467 476.61982790670817L1319.0304163072467 456.7961348505024L1311.3588438014824 456.7961348505024Q1301.6764887585946 456.9491291739792 1296.0594114538042 461.14554490362804Q1290.4641904809394 465.34196063327687 1290.4641904809394 472.8605388155644L1290.4641904809394 472.8605388155644Q1290.4641904809394 479.92013402742157 1293.3055136312223 483.1111584885087Q1296.1468367815053 486.3021829495958 1302.900443346409 486.3021829495958ZM1394.0413474747195 475.85485628932423L1394.0413474747195 475.85485628932423Q1394.0413474747195 471.48358990427334 1390.7191850220809 468.3362781070367Q1387.4188789013676 465.1671099778748 1377.9769435096578 460.94883791630076L1377.9769435096578 460.94883791630076Q1366.9832085512548 456.4245772077731 1362.4808041746523 453.1898400828354Q1358.000256129975 449.9551029578978 1355.7709102735992 445.84611255594996Q1353.5415644172233 441.7371221540021 1353.5415644172233 436.05447585343603L1353.5415644172233 436.05447585343603Q1353.5415644172233 425.913137840118 1360.9508609398845 419.18138760713964Q1368.3601574625457 412.4714937060865 1379.9003007190802 412.4714937060865L1379.9003007190802 412.4714937060865Q1392.0305649375962 412.4714937060865 1399.4180051283322 419.5310889179437Q1406.7835889871428 426.6125404617261 1406.7835889871428 437.67184441590484L1406.7835889871428 437.67184441590484L1393.2545195254104 437.67184441590484Q1393.2545195254104 432.0547671111145 1389.4952304342667 428.0987710326434Q1385.735941343123 424.14277495417235 1379.9003007190802 424.14277495417235L1379.9003007190802 424.14277495417235Q1373.9116657715604 424.14277495417235 1370.4802216592955 427.26823041948376Q1367.0706338789557 430.3718295528699 1367.0706338789557 435.59549288300565L1367.0706338789557 435.59549288300565Q1367.0706338789557 439.748195948804 1369.5622557184347 442.2835304521335Q1372.0538775579137 444.818864955463 1381.5832382773249 448.97156802126136L1381.5832382773249 448.97156802126136Q1396.729676301526 454.87277764108 1402.1719029509143 460.53356760972093Q1407.6359859322279 466.1725012464366 1407.6359859322279 474.8494650207625L1407.6359859322279 474.8494650207625Q1407.6359859322279 485.6902056556887 1400.1829767457161 492.18153623748924Q1392.7299675592046 498.6728668192898 1380.2062893660336 498.6728668192898L1380.2062893660336 498.6728668192898Q1367.2236282024326 498.6728668192898 1359.1586417220137 491.2198576327781Q1351.0717989096695 483.76684844626635 1351.0717989096695 472.314130517433L1351.0717989096695 472.314130517433L1364.7538626948788 472.314130517433Q1364.9942823460565 479.2425877377387 1368.9939910883784 483.1548711523592Q1372.9718434987747 487.06715456697975 1380.2062893660336 487.06715456697975L1380.2062893660336 487.06715456697975Q1386.9598959309371 487.06715456697975 1390.5006217028283 484.0509807612946Q1394.0413474747195 481.0129506236843 1394.0413474747195 475.85485628932423ZM1438.912396917267 379.11873118814833L1438.912396917267 422.52540639170354Q1446.6713947507321 412.4714937060865 1458.7360899734729 412.4714937060865L1458.7360899734729 412.4714937060865Q1480.7891288860544 412.4714937060865 1481.0951175330079 441.89011647747895L1481.0951175330079 441.89011647747895L1481.0951175330079 497.142923584522L1467.5660480712754 497.142923584522L1467.5660480712754 442.50209377138606Q1467.5660480712754 432.7541697327226 1464.3094546144127 428.6451793307748Q1461.0310048256244 424.53618892882696 1454.4959615799733 424.53618892882696L1454.4959615799733 424.53618892882696Q1449.4252925733142 424.53618892882696 1445.4037274990676 427.90206404531614Q1441.3603060928956 431.28979549373054 1438.912396917267 436.75387847504413L1438.912396917267 436.75387847504413L1438.912396917267 497.142923584522L1425.3177584597586 497.142923584522L1425.3177584597586 379.11873118814833L1438.912396917267 379.11873118814833ZM1601.56721910501 385.2603604591448L1601.56721910501 397.41248100958626L1572.1485963336177 397.41248100958626L1572.1485963336177 497.142923584522L1558.0949749056792 497.142923584522L1558.0949749056792 397.41248100958626L1528.7419211300623 397.41248100958626L1528.7419211300623 385.2603604591448L1601.56721910501 385.2603604591448ZM1605.7199221708086 460.795843592824L1605.7199221708086 451.7254658438434Q1605.7199221708086 433.6065666778075 1614.528023936686 423.0281020259844Q1623.3142693706382 412.4714937060865 1637.7613047732314 412.4714937060865Q1652.2083401758243 412.4714937060865 1661.0164419417022 422.7658260428814Q1669.8026873756544 433.0601583796762 1670.043107026832 450.8074999029827L1670.043107026832 450.8074999029827L1670.043107026832 459.5718890050097Q1670.043107026832 477.6252191752699 1661.278717924805 488.15997116324246Q1652.514328822778 498.6728668192898 1637.914299096708 498.6728668192898L1637.914299096708 498.6728668192898Q1623.467263694115 498.6728668192898 1614.7465872559385 488.465959810196Q1606.025910817762 478.237196469177 1605.7199221708086 460.795843592824L1605.7199221708086 460.795843592824ZM1619.3145606283167 451.65989684806766L1619.3145606283167 459.5718890050097Q1619.3145606283167 472.40155584513406 1624.3633733030504 479.7452833720195Q1629.3903296458589 487.06715456697975 1637.914299096708 487.06715456697975L1637.914299096708 487.06715456697975Q1655.9020602711923 487.06715456697975 1656.448468569324 461.10183223977754L1656.448468569324 461.10183223977754L1656.448468569324 451.7254658438434Q1656.448468569324 438.9832243314201 1651.3559432307395 431.5520714768336Q1646.2852742240805 424.14277495417235 1637.7613047732314 424.14277495417235L1637.7613047732314 424.14277495417235Q1629.3903296458589 424.14277495417235 1624.3633733030504 431.5520714768336Q1619.3145606283167 438.9832243314201 1619.3145606283167 451.65989684806766L1619.3145606283167 451.65989684806766ZM1684.7087057486779 460.795843592824L1684.7087057486779 451.7254658438434Q1684.7087057486779 433.6065666778075 1693.5168075145555 423.0281020259844Q1702.3030529485077 412.4714937060865 1716.7500883511009 412.4714937060865Q1731.1971237536939 412.4714937060865 1740.0052255195712 422.7658260428814Q1748.7914709535237 433.0601583796762 1749.0318906047016 450.8074999029827L1749.0318906047016 450.8074999029827L1749.0318906047016 459.5718890050097Q1749.0318906047016 477.6252191752699 1740.2675015026746 488.15997116324246Q1731.5031124006475 498.6728668192898 1716.9030826745773 498.6728668192898L1716.9030826745773 498.6728668192898Q1702.4560472719843 498.6728668192898 1693.7353708338078 488.465959810196Q1685.0146943956313 478.237196469177 1684.7087057486779 460.795843592824L1684.7087057486779 460.795843592824ZM1698.3252005381112 451.65989684806766L1698.3252005381112 459.5718890050097Q1698.3252005381112 472.40155584513406 1703.3521568809194 479.7452833720195Q1708.3791132237282 487.06715456697975 1716.9030826745773 487.06715456697975L1716.9030826745773 487.06715456697975Q1734.8908438490619 487.06715456697975 1735.437252147193 461.10183223977754L1735.437252147193 461.10183223977754L1735.437252147193 451.7254658438434Q1735.437252147193 438.9832243314201 1730.3665831405344 431.5520714768336Q1725.295914133875 424.14277495417235 1716.7500883511009 424.14277495417235L1716.7500883511009 424.14277495417235Q1708.3791132237282 424.14277495417235 1703.3521568809194 431.5520714768336Q1698.3252005381112 438.9832243314201 1698.3252005381112 451.65989684806766L1698.3252005381112 451.65989684806766ZM1781.2262675306013 379.11873118814833L1781.2262675306013 497.142923584522L1767.631629073093 497.142923584522L1767.631629073093 379.11873118814833L1781.2262675306013 379.11873118814833ZM1842.99226155137 475.85485628932423L1842.99226155137 475.85485628932423Q1842.99226155137 471.48358990427334 1839.6919554306567 468.3362781070367Q1836.391649309943 465.1671099778748 1826.9497139182333 460.94883791630076L1826.9497139182333 460.94883791630076Q1815.9559789598304 456.4245772077731 1811.453574583228 453.1898400828354Q1806.9730265385508 449.9551029578978 1804.743680682175 445.84611255594996Q1802.514334825799 441.7371221540021 1802.514334825799 436.05447585343603L1802.514334825799 436.05447585343603Q1802.514334825799 425.913137840118 1809.92363134846 419.18138760713964Q1817.3329278711215 412.4714937060865 1828.8730711276555 412.4714937060865L1828.8730711276555 412.4714937060865Q1841.003335346172 412.4714937060865 1848.390775536908 419.5310889179437Q1855.7563593957186 426.6125404617261 1855.7563593957186 437.67184441590484L1855.7563593957186 437.67184441590484L1842.2272899339862 437.67184441590484Q1842.2272899339862 432.0547671111145 1838.4680008428425 428.0987710326434Q1834.7087117516987 424.14277495417235 1828.8730711276555 424.14277495417235L1828.8730711276555 424.14277495417235Q1822.8625798482105 424.14277495417235 1819.4529920678708 427.26823041948376Q1816.0215479556061 430.3718295528699 1816.0215479556061 435.59549288300565L1816.0215479556061 435.59549288300565Q1816.0215479556061 439.748195948804 1818.5350261270103 442.2835304521335Q1821.026647966489 444.818864955463 1830.5560086859002 448.97156802126136L1830.5560086859002 448.97156802126136Q1845.6805903781767 454.87277764108 1851.14467335949 460.53356760972093Q1856.6087563408034 466.1725012464366 1856.6087563408034 474.8494650207625L1856.6087563408034 474.8494650207625Q1856.6087563408034 485.6902056556887 1849.1557471542917 492.18153623748924Q1841.70273796778 498.6728668192898 1829.1790597746092 498.6728668192898L1829.1790597746092 498.6728668192898Q1816.174542279083 498.6728668192898 1808.109555798664 491.2198576327781Q1800.0445693182453 483.76684844626635 1800.0445693182453 472.314130517433L1800.0445693182453 472.314130517433L1813.7266331034546 472.314130517433Q1813.9670527546325 479.2425877377387 1817.9449051650283 483.1548711523592Q1821.94461390735 487.06715456697975 1829.1790597746092 487.06715456697975L1829.1790597746092 487.06715456697975Q1835.932666339513 487.06715456697975 1839.473392111404 484.0509807612946Q1842.99226155137 481.0129506236843 1842.99226155137 475.85485628932423Z " fill="#ffffff" transform="matrix(0.471289393779471,0,0,0.4712893937794709,0,85.97866585793474)"/></g></svg>